<?xml version="1.0" encoding="utf-8"?>
<!-- Svg Vector Icons : http://www.onlinewebfonts.com/icon -->
<!DOCTYPE svg PUBLIC "-//W3C//DTD SVG 1.1//EN" "http://www.w3.org/Graphics/SVG/1.1/DTD/svg11.dtd">
<svg version="1.1" xmlns="http://www.w3.org/2000/svg" xmlns:xlink="http://www.w3.org/1999/xlink" x="0px" y="0px" viewBox="0 0 256 256" enable-background="new 0 0 256 256" xml:space="preserve">
<metadata> Svg Vector Icons : http://www.onlinewebfonts.com/icon </metadata>
<g> <path fill="#000000" d="M222.4,128c0,52.1-42.3,94.4-94.4,94.4l0,0c-52.1,0-94.4-42.3-94.4-94.4l0,0c0-52.1,42.3-94.4,94.4-94.4 c9,0,17.7,1.3,26,3.7l18.5-18.5C158.4,12.9,143.3,10,128,10C62.8,10,10,62.8,10,128l0,0c0,65.2,52.8,118,118,118 c65.2,0,118-52.8,118-118 M79.7,105.3l-16.6,16.8l53.1,53.1l118-118l-16.6-16.8L116.2,141.8L79.7,105.3z"/></g>
</svg>