<?xml version="1.0" encoding="utf-8"?>
<!-- Svg Vector Icons : http://www.onlinewebfonts.com/icon -->
<!DOCTYPE svg PUBLIC "-//W3C//DTD SVG 1.1//EN" "http://www.w3.org/Graphics/SVG/1.1/DTD/svg11.dtd">
<svg version="1.1" xmlns="http://www.w3.org/2000/svg" xmlns:xlink="http://www.w3.org/1999/xlink" x="0px" y="0px" viewBox="0 0 256 256" enable-background="new 0 0 256 256" xml:space="preserve">
<metadata> Svg Vector Icons : http://www.onlinewebfonts.com/icon </metadata>
<g><g><g><path fill="#000000" d="M39.4,39.4L10,68.8v88.7V246h103.3h103.3v-51.6v-51.6h-7.4h-7.4V187v44.3h-88.5H24.8v-81.1V69h22.1H69V46.9V24.7h66.4h66.4v7.4v7.4h7.4h7.4V24.7V10h-73.9H68.8L39.4,39.4z"/><path fill="#000000" d="M220.2,47.5c-3.1,0.9-7.4,3.3-9.3,5.3l-1.7,1.7L224,69.2L238.7,84l1.8-2.1c5.2-5.9,6.8-14.2,4.1-21.3C240.9,50.7,229.9,44.8,220.2,47.5z"/><path fill="#000000" d="M150,109.7l-51.5,48l14.8,14.8l14.8,14.8l51.7-48.1L231.4,91l-14.7-14.7c-8.1-8.1-14.8-14.7-14.9-14.7C201.7,61.7,178.4,83.3,150,109.7z"/><path fill="#000000" d="M90.9,165.4c-0.9,2.4-14.5,43.5-14.4,43.6c0.1,0.1,43.7-14.4,43.9-14.7c0.1-0.1-6.4-6.8-14.5-14.9C96,169.5,91.1,164.9,90.9,165.4z"/></g></g></g>
</svg>